<svg width="65" height="65" viewBox="0 0 65 65" fill="none" xmlns="http://www.w3.org/2000/svg">
<path d="M29.8838 29.8838C30.5776 29.1899 31.5187 28.8 32.5 28.8C33.4813 28.8 34.4225 29.1899 35.1163 29.8838C35.8102 30.5776 36.2 31.5187 36.2 32.5C36.2 33.4813 35.8102 34.4225 35.1163 35.1163C34.4225 35.8102 33.4813 36.2 32.5 36.2C31.5187 36.2 30.5776 35.8102 29.8838 35.1163C29.1899 34.4225 28.8 33.4813 28.8 32.5C28.8 31.5187 29.1899 30.5776 29.8838 29.8838Z" stroke="#303030" stroke-width="3"/>
<path d="M22.7867 26.8964C18.9021 33.6248 16.1958 40.6661 15.2632 46.4712C14.3306 52.2764 15.2482 56.37 17.8139 57.8513C20.3797 59.3327 24.3836 58.0805 28.9447 54.3703C33.5059 50.66 38.2507 44.7957 42.1353 38.0672C46.02 31.3388 48.7263 24.2975 49.6588 18.4923C50.5914 12.6872 49.6739 8.59363 47.1081 7.11228C44.5424 5.63092 40.5385 6.8831 35.9773 10.5933C31.4162 14.3036 26.6714 20.1679 22.7867 26.8964V26.8964Z" stroke="#303030" stroke-width="4.086"/>
<path d="M61.1 31.971C61.1 38.1369 48.2846 43.1419 32.5 43.1419C16.7154 43.1419 3.90002 38.1369 3.90002 31.971C3.90002 25.8051 16.7154 20.8 32.5 20.8C48.2846 20.8 61.1 25.8051 61.1 31.971Z" stroke="#303030" stroke-width="4.038"/>
<path d="M17.8261 7.14819C15.2604 8.62955 14.3428 12.7231 15.2754 18.5283C16.208 24.3334 18.9143 31.3747 22.799 38.1032C26.6836 44.8316 31.4284 50.696 35.9896 54.4062C40.5507 58.1164 44.5546 59.3686 47.1203 57.8872C49.6861 56.4059 50.6036 52.3123 49.6711 46.5072C48.7385 40.702 46.0322 33.6607 42.1475 26.9323C38.2629 20.2038 33.5181 14.3395 28.9569 10.6292C24.3958 6.91901 20.3919 5.66684 17.8261 7.14819V7.14819Z" stroke="#303030" stroke-width="4"/>
</svg>
