<svg id="Layer_1" enable-background="new 0 0 512.002 512.002" height="512" viewBox="0 0 512.002 512.002" width="512" xmlns="http://www.w3.org/2000/svg"><g><g><path d="m508.033 154.025-52.033-39.341v-104.684c0-5.522-4.478-10-10-10h-249.998c-5.522 0-10 4.478-10 10s4.478 10 10 10h239.998v239.369l-92.705 70.096-13.741-10.39c-6.033-4.562-13.902-7.074-22.158-7.074h-102.79c-8.257 0-16.127 2.513-22.158 7.074l-13.741 10.39-92.707-70.096v-239.369h30.002c5.522 0 10-4.478 10-10s-4.478-10-10-10h-40.002c-5.522 0-10 4.478-10 10v104.683l-52.031 39.341c-2.5 1.891-3.969 4.843-3.969 7.977v320.001c0 16.542 13.458 30 29.999 30h452.002c16.542 0 30-13.458 30-30v-320c0-3.134-1.468-6.086-3.968-7.977zm-52.033-14.268 36.001 27.22v50.049l-36.001 27.221zm-436 102.343 132.125 99.902-132.125 99.901zm36-102.344v104.49l-36-27.22v-50.05zm426.001 352.246h-452.001c-5.514 0-9.999-4.486-9.999-10v-15.025l174.511-131.949c2.543-1.923 6.223-3.026 10.095-3.026h102.79c3.872 0 7.552 1.104 10.096 3.027l53.343 40.333c4.406 3.332 10.679 2.46 14.008-1.945 3.331-4.405 2.46-10.677-1.945-14.008l-23.021-17.406 132.123-99.903v199.803l-37.315-28.215c-4.405-3.329-10.678-2.459-14.008 1.945-3.331 4.405-2.46 10.677 1.945 14.008l49.378 37.335v15.025c0 5.515-4.486 10.001-10 10.001z"/><path d="m146 119.673v40c0 5.522 4.478 10 10 10v90.001c0 5.522 4.478 10 10 10h180c5.522 0 10-4.478 10-10v-90.001c5.522 0 10-4.478 10-10v-40c0-5.522-4.478-10-10-10h-47.503c1.61-3.85 2.503-8.072 2.503-12.5 0-17.921-14.579-32.5-32.5-32.5-8.727 0-16.656 3.464-22.5 9.081-5.844-5.617-13.773-9.081-22.5-9.081-17.921 0-32.5 14.579-32.5 32.5 0 4.428.893 8.65 2.503 12.5h-47.503c-5.522 0-10 4.477-10 10zm30 50h70v80.001h-70zm160 80.001h-70v-80.001h70zm10-100.001h-80v-20h80zm-67.5-65c6.893 0 12.5 5.607 12.5 12.5s-5.607 12.5-12.5 12.5h-12.5v-12.5c0-6.893 5.608-12.5 12.5-12.5zm-57.5 12.5c0-6.893 5.607-12.5 12.5-12.5s12.5 5.607 12.5 12.5v12.5h-12.5c-6.892 0-12.5-5.608-12.5-12.5zm-55 32.5h80v20h-80z"/><path d="m151.005 20c5.522 0 10-4.478 10-10s-4.478-10-10-10h-.007c-5.522 0-9.996 4.478-9.996 10s4.481 10 10.003 10z"/><path d="m412.762 384.526h-.008c-5.522 0-9.996 4.478-9.996 10s4.481 10 10.004 10 10-4.478 10-10-4.477-10-10-10z"/></g></g></svg>