<svg fill="#000000" xmlns="http://www.w3.org/2000/svg" viewBox="0 0 50 50" width="100px" height="100px"><path fill="none" stroke="#000000" stroke-miterlimit="10" stroke-width="2" d="M12.76,43.263L3.454,26.737c-0.605-1.075-0.605-2.399,0-3.474L12.76,6.737C13.365,5.662,14.484,5,15.694,5h18.612c1.21,0,2.329,0.662,2.934,1.737l9.306,16.526c0.605,1.075,0.605,2.399,0,3.474L37.24,43.263C36.635,44.338,35.516,45,34.306,45H15.694C14.484,45,13.365,44.338,12.76,43.263z"/><path fill="none" stroke="#000000" stroke-miterlimit="10" stroke-width="2" d="M18.072 37L11.144 25 18.072 13 31.928 13 38.856 25 31.928 37z"/><path fill="none" stroke="#000000" stroke-miterlimit="10" stroke-width="2" d="M25 20A5 5 0 1 0 25 30 5 5 0 1 0 25 20zM16.644 34.527L6.816 17.505M18.072 13L40.537 13M38.856 25L27.561 44.564"/></svg>