<svg width="85" height="87" viewBox="0 0 85 87" fill="none" xmlns="http://www.w3.org/2000/svg">
<path d="M72.5156 72.0641C72.5156 76.8163 68.7997 80.6678 64.2148 80.6678H21.0508C16.4659 80.6678 12.75 76.8163 12.75 72.0641V27.3252C12.75 22.573 16.4659 18.7216 21.0508 18.7216H64.2148C68.7997 18.7216 72.5156 22.573 72.5156 27.3252V72.0641Z" fill="#303030"/>
<path d="M57.6229 52.4471C56.5463 50.8978 54.9835 49.8324 52.9764 49.2645C52.9764 49.2645 54.6689 48.6293 56.1962 46.2532C57.1105 44.7375 57.5742 42.9159 57.5742 40.7818C57.5742 37.0816 56.2805 34.2417 53.6897 32.2992C51.099 30.3532 48.1775 29.0459 43.2132 29.0459H27.6914V70.3434H45.0063C49.7047 70.3098 53.2422 69.2579 55.6482 67.2447C58.0379 65.198 59.2344 62.1699 59.2344 58.1269C59.2344 55.8886 58.7026 53.9965 57.6229 52.4471ZM37.6523 35.9288C37.6523 35.9288 44.5751 35.9288 44.708 35.9288C47.2307 35.9288 49.2734 38.0461 49.2734 40.6608C49.2734 43.2755 47.2307 45.3928 44.708 45.3928C44.5751 45.3928 37.6523 45.3928 37.6523 45.3928V35.9288ZM45.9531 63.4605H37.6523V53.1361H45.9531C48.7092 53.1361 50.9336 55.4416 50.9336 58.2983C50.9336 61.155 48.7092 63.4605 45.9531 63.4605Z" fill="white"/>
</svg>
