<svg width="40" height="40" viewBox="0 0 40 40" fill="none" xmlns="http://www.w3.org/2000/svg">
<path d="M40 19.679C40 8.81223 31.044 0 20 0C8.95599 0 0 8.81223 0 19.679C0 30.5457 8.95599 39.3579 20 39.3579C20.1175 39.3579 20.2344 39.3555 20.3516 39.3534V24.0342H16.0547V19.1069H20.3516V15.4811C20.3516 11.276 22.9605 8.98729 26.7728 8.98729C28.5983 8.98729 30.1675 9.12121 30.625 9.18097V13.5758H27.9962C25.9222 13.5758 25.5206 14.5457 25.5206 15.9687V19.1069H30.4797L29.8334 24.0342H25.5206V38.5976C33.8803 36.2395 40 28.6614 40 19.679Z" fill="#AEAEAE"/>
</svg>
