<svg width="40" height="43" viewBox="0 0 40 43" fill="none" xmlns="http://www.w3.org/2000/svg">
<g clip-path="url(#clip0)">
<path d="M40 21.5C40 33.3743 31.0458 43 20 43C8.95416 43 0 33.3743 0 21.5C0 9.62572 8.95416 0 20 0C31.0458 0 40 9.62572 40 21.5Z" fill="#4A7AFF"/>
<path d="M20.8777 42.978C31.5162 42.4843 40.0001 33.0577 40.0001 21.5C40.0001 21.4163 39.9979 21.333 39.997 21.2494L26.1143 6.32507L11.2705 23.0038L19.5179 31.8698L15.7151 37.4282L20.8777 42.978Z" fill="#0053BF"/>
<path d="M26.1142 6.32499V11.1935C26.1142 11.1935 20.9146 10.3822 20.9146 13.9882V17.5943H25.611L25.0241 23.0937H20.9146V37.4281H15.715V23.0937L11.2701 23.0034V17.5943H15.6311V13.4473C15.6311 13.4473 15.3433 7.27802 20.9985 6.14488C23.3469 5.67411 26.1142 6.32499 26.1142 6.32499Z" fill="white"/>
<path d="M26.1142 11.1935V6.32499C26.1142 6.32499 23.3469 5.67411 20.9985 6.14488C20.6317 6.21837 20.2905 6.31351 19.9722 6.42604V37.4281H20.9146V23.0937H25.0238L25.611 17.5943H20.9146C20.9146 17.5943 20.9146 17.5943 20.9146 13.9882C20.9146 10.3822 26.1142 11.1935 26.1142 11.1935Z" fill="#DCE1EB"/>
</g>
<defs>
<clipPath id="clip0">
<rect width="40" height="43" fill="white"/>
</clipPath>
</defs>
</svg>
