<svg width="85" height="80" viewBox="0 0 85 80" fill="none" xmlns="http://www.w3.org/2000/svg">
<path d="M1.66016 37.1066H83.3398V78.4372H1.66016V37.1066Z" fill="#98EAF9"/>
<path d="M1.66016 37.1066L23.6171 57.7721H61.3829L83.3398 37.1066L71.0547 25.5441L13.9453 25.6247L1.66016 37.1066Z" fill="#C193DC"/>
<path d="M71.0547 49.6094L61.8408 58.2031H23.1592L13.9453 49.6094V1.5625H71.0547V49.6094Z" fill="white"/>
<path d="M28.5167 53.1605L1.66016 78.4374H83.3398L56.4832 53.1605H28.5167Z" fill="#CBF4FB"/>
<path d="M35.3263 28.6285C40.3048 28.6285 44.3406 24.3345 44.3406 19.0377C44.3406 13.7408 40.3048 9.4469 35.3263 9.4469C30.3478 9.4469 26.312 13.7408 26.312 19.0377C26.312 24.3345 30.3478 28.6285 35.3263 28.6285Z" fill="#FF7D97"/>
<path d="M49.6737 34.8305C54.6522 34.8305 58.688 30.5365 58.688 25.2396C58.688 19.9428 54.6522 15.6488 49.6737 15.6488C44.6952 15.6488 40.6594 19.9428 40.6594 25.2396C40.6594 30.5365 44.6952 34.8305 49.6737 34.8305Z" fill="#98EAF9"/>
<path d="M84.5137 36.002L72.7148 24.897V1.5625C72.7148 0.699531 71.9714 0 71.0547 0H13.9453C13.0286 0 12.2852 0.699531 12.2852 1.5625V24.897L0.48626 36.002C0.185771 36.2848 0 36.6755 0 37.1069V78.4375C0 79.3005 0.743252 80 1.66016 80H83.3398C84.2566 80 85 79.3005 85 78.4375V37.1069C85 36.6755 84.8142 36.2848 84.5137 36.002ZM81.6797 74.6652L63.7307 57.7722L81.6797 40.8791V74.6652ZM80.9919 37.1069L72.7148 44.897V29.3166L80.9919 37.1069ZM69.3945 3.125V48.022L61.3829 55.5623L57.6572 52.0558C57.3458 51.7628 56.9236 51.5981 56.4833 51.5981H49.9707C49.054 51.5981 48.3105 52.2977 48.3105 53.1606C48.3105 54.0236 49.054 54.7231 49.9707 54.7231H55.7955L79.3317 76.875H5.66827L29.2045 54.7231H35.0293C35.9462 54.7231 36.6895 54.0236 36.6895 53.1606C36.6895 52.2977 35.9462 51.5981 35.0293 51.5981H28.5167C28.0764 51.5981 27.6542 51.7628 27.3428 52.0558L23.6171 55.5623L15.6055 48.022V3.125H69.3945ZM12.2852 29.3166V44.897L4.00812 37.1069L12.2852 29.3166ZM21.2691 57.7722L3.32031 74.6652V40.8791L21.2691 57.7722Z" fill="black"/>
<path d="M42.5 51.5988C42.0634 51.5988 41.6351 51.7659 41.3263 52.0566C41.0175 52.3472 40.8398 52.7503 40.8398 53.1613C40.8398 53.5722 41.0173 53.9753 41.3263 54.2659C41.6351 54.5566 42.0634 54.7238 42.5 54.7238C42.9366 54.7238 43.3649 54.5566 43.6736 54.2659C43.9824 53.9753 44.1602 53.5722 44.1602 53.1613C44.1602 52.7503 43.9825 52.3472 43.6736 52.0566C43.3649 51.7659 42.9366 51.5988 42.5 51.5988Z" fill="black"/>
<path d="M34.1507 30.1224C34.5085 31.3286 34.3996 32.6203 33.8237 33.7745C32.6919 36.0427 32.6919 38.6444 33.8237 40.9128C34.1064 41.4792 34.7039 41.8114 35.3276 41.8114C35.564 41.8114 35.8041 41.7636 36.0322 41.6628C36.8621 41.2959 37.219 40.3655 36.8292 39.5844C36.1187 38.1603 36.1187 36.527 36.8292 35.103C37.6404 33.4772 37.8668 31.6806 37.5154 29.958C38.2699 29.7947 39.0019 29.5453 39.703 29.2155C41.105 33.0411 44.4663 35.8603 48.4983 36.3241C48.8561 37.5303 48.7472 38.822 48.1712 39.9763C47.0395 42.2444 47.0395 44.8463 48.1712 47.1145C48.454 47.6809 49.0515 48.0131 49.6752 48.0131C49.9116 48.0131 50.1516 47.9653 50.3797 47.8645C51.2097 47.4977 51.5664 46.5672 51.1768 45.7861C50.4662 44.362 50.4662 42.7288 51.1768 41.3047C51.9884 39.678 52.2147 37.8803 51.8623 36.1566C56.7021 35.0988 60.3487 30.6063 60.3487 25.2399C60.3487 19.09 55.5599 14.0867 49.674 14.0867C48.1186 14.0867 46.6412 14.4391 45.3073 15.0667C43.7687 10.7995 39.8585 7.88501 35.3266 7.88501C29.4407 7.88501 24.652 12.8883 24.652 19.0381C24.6516 24.7728 28.816 29.5088 34.1507 30.1224ZM57.028 25.2399C57.028 29.6666 53.7289 33.2681 49.6737 33.2681C45.6186 33.2681 42.3195 29.6667 42.3195 25.2399C42.3195 20.8131 45.6186 17.2117 49.6737 17.2117C53.7289 17.2117 57.028 20.8131 57.028 25.2399ZM35.3263 11.01C38.7225 11.01 41.6256 13.5077 42.4497 17.0378C40.3302 19.0775 38.9992 21.9989 38.9992 25.2399C38.9992 25.4867 39.0097 25.7311 39.0249 25.9741C37.9047 26.69 36.6395 27.0664 35.3263 27.0664C31.271 27.0664 27.972 23.465 27.972 19.0381C27.972 14.6114 31.271 11.01 35.3263 11.01Z" fill="black"/>
</svg>
