<svg width="87" height="70" viewBox="0 0 87 70" fill="none" xmlns="http://www.w3.org/2000/svg">
<path d="M17.125 63H8.15625V18.1875H39.5312V27.1562H17.125V36.125H30.5625V45.0938H17.125V63ZM41.5312 31.625C41.5312 29.7708 41.8854 28.0312 42.5938 26.4062C43.3021 24.7812 44.2604 23.3646 45.4688 22.1562C46.6979 20.9271 48.125 19.9583 49.75 19.25C51.375 18.5417 53.1146 18.1875 54.9688 18.1875H75.5312V27.1562H54.9688C54.3438 27.1562 53.7604 27.2708 53.2188 27.5C52.6771 27.7292 52.1979 28.0521 51.7812 28.4688C51.3854 28.8646 51.0729 29.3333 50.8438 29.875C50.6146 30.4167 50.5 31 50.5 31.625C50.5 32.25 50.6146 32.8438 50.8438 33.4062C51.0729 33.9479 51.3854 34.4271 51.7812 34.8438C52.1979 35.2396 52.6771 35.5521 53.2188 35.7812C53.7604 36.0104 54.3438 36.125 54.9688 36.125H63.9375C65.7917 36.125 67.5312 36.4792 69.1562 37.1875C70.8021 37.875 72.2292 38.8333 73.4375 40.0625C74.6667 41.2708 75.625 42.6979 76.3125 44.3438C77.0208 45.9688 77.375 47.7083 77.375 49.5625C77.375 51.4167 77.0208 53.1562 76.3125 54.7812C75.625 56.4062 74.6667 57.8333 73.4375 59.0625C72.2292 60.2708 70.8021 61.2292 69.1562 61.9375C67.5312 62.6458 65.7917 63 63.9375 63H44.0312V54.0312H63.9375C64.5625 54.0312 65.1458 53.9167 65.6875 53.6875C66.2292 53.4583 66.6979 53.1458 67.0938 52.75C67.5104 52.3333 67.8333 51.8542 68.0625 51.3125C68.2917 50.7708 68.4062 50.1875 68.4062 49.5625C68.4062 48.9375 68.2917 48.3542 68.0625 47.8125C67.8333 47.2708 67.5104 46.8021 67.0938 46.4062C66.6979 45.9896 66.2292 45.6667 65.6875 45.4375C65.1458 45.2083 64.5625 45.0938 63.9375 45.0938H54.9688C53.1146 45.0938 51.375 44.7396 49.75 44.0312C48.125 43.3229 46.6979 42.3646 45.4688 41.1562C44.2604 39.9271 43.3021 38.5 42.5938 36.875C41.8854 35.2292 41.5312 33.4792 41.5312 31.625Z" fill="white"/>
<rect x="1" y="12" width="85" height="57" stroke="white" stroke-width="2"/>
</svg>
