<svg width="48" height="48" viewBox="0 0 48 48" fill="none" xmlns="http://www.w3.org/2000/svg">
<path d="M25.4118 48H28.2354V42.353H31.0589V48H33.8824V42.353H36.706V48H39.5294V42.353C41.0866 42.353 42.3529 41.0866 42.3529 39.5294H48V36.7059H42.3529V33.8823H48V31.0588H42.3529V28.2353H48V25.4117H42.3529V22.5883H48V19.7647H42.3529V16.9412H48V14.1177H42.3529V11.2941H48V8.47058H42.3529C42.3529 6.91339 41.0866 5.64706 39.5294 5.64706V0H36.706V5.64706H33.8824V0H31.0589V5.64706H28.2354V0H25.4118V5.64706H22.5883V0H19.7647V5.64706H16.9412V0H14.1177V5.64706H11.2941V0H8.47061V5.64706C6.91341 5.64706 5.64707 6.91339 5.64707 8.47058H0V11.2941H5.64707V14.1177H0V16.9412H5.64707V19.7647H0V22.5883H5.64707V25.4117H0V28.2353H5.64707V31.0588H0V33.8823H5.64707V36.7059H0V39.5294H5.64707C5.64707 41.0866 6.91341 42.353 8.47061 42.353V48H11.2941V42.353H14.1177V48H16.9412V42.353H19.7647V48H22.5883V42.353H25.4118V48ZM32.4707 12.7059C34.0306 12.7059 35.2942 13.9694 35.2942 15.5294C35.2942 17.0894 34.0306 18.353 32.4707 18.353C30.9106 18.353 29.6471 17.0894 29.6471 15.5294C29.6471 13.9694 30.9106 12.7059 32.4707 12.7059ZM15.5294 35.2941C13.9695 35.2941 12.7059 34.0305 12.7059 32.4706C12.7059 30.9106 13.9695 29.647 15.5294 29.647C17.0894 29.647 18.353 30.9106 18.353 32.4706C18.353 34.0305 17.0894 35.2941 15.5294 35.2941ZM16.9412 16.9412V25.4117H14.1177V14.1177H25.4118V16.9412H16.9412ZM22.5883 33.8823V31.0588H31.0589V22.5883H33.8824V33.8823H22.5883Z" fill="white"/>
</svg>
