<svg width="62" height="75" viewBox="0 0 62 75" fill="none" xmlns="http://www.w3.org/2000/svg">
<rect x="1.5" y="1.5" width="59" height="72" rx="5.5" stroke="#303030" stroke-width="3"/>
<path fill-rule="evenodd" clip-rule="evenodd" d="M31.0001 30.6799C29.8543 30.6799 28.7555 31.1351 27.9454 31.9452C27.1352 32.7554 26.6801 33.8542 26.6801 34.9999C26.6801 36.1457 27.1352 37.2445 27.9454 38.0546C28.7555 38.8648 29.8543 39.3199 31.0001 39.3199C32.1458 39.3199 33.2446 38.8648 34.0548 38.0546C34.8649 37.2445 35.3201 36.1457 35.3201 34.9999C35.3201 33.8542 34.8649 32.7554 34.0548 31.9452C33.2446 31.1351 32.1458 30.6799 31.0001 30.6799Z" fill="#303030"/>
<path d="M31.0001 30.6799C29.8543 30.6799 28.7555 31.1351 27.9454 31.9452C27.1352 32.7554 26.6801 33.8542 26.6801 34.9999C26.6801 36.1457 27.1352 37.2445 27.9454 38.0546C28.7555 38.8648 29.8543 39.3199 31.0001 39.3199C32.1458 39.3199 33.2446 38.8648 34.0548 38.0546C34.8649 37.2445 35.3201 36.1457 35.3201 34.9999C35.3201 33.8542 34.8649 32.7554 34.0548 31.9452C33.2446 31.1351 32.1458 30.6799 31.0001 30.6799Z" stroke="#303030" stroke-width="4" stroke-miterlimit="10" stroke-linejoin="round"/>
<path d="M22.9306 30.3447C19.7033 35.9344 17.455 41.7841 16.6802 46.6069C15.9055 51.4297 16.6677 54.8305 18.7993 56.0611C20.9309 57.2918 24.2572 56.2515 28.0464 53.1692C31.8357 50.0868 35.7775 45.2149 39.0048 39.6251C42.232 34.0354 44.4803 28.1857 45.2551 23.3629C46.0298 18.5401 45.2676 15.1393 43.136 13.9087C41.0045 12.678 37.6782 13.7183 33.8889 16.8006C30.0997 19.883 26.1578 24.7549 22.9306 30.3447V30.3447Z" stroke="#303030" stroke-width="4.086"/>
<path d="M54.76 34.5604C54.76 39.6828 44.1134 43.8408 31 43.8408C17.8866 43.8408 7.23999 39.6828 7.23999 34.5604C7.23999 29.4379 17.8866 25.2799 31 25.2799C44.1134 25.2799 54.76 29.4379 54.76 34.5604Z" stroke="#303030" stroke-width="4.038"/>
<path d="M18.8093 13.9385C16.6777 15.1692 15.9155 18.57 16.6903 23.3927C17.465 28.2155 19.7133 34.0652 22.9406 39.655C26.1678 45.2447 30.1097 50.1167 33.8989 53.199C37.6882 56.2813 41.0145 57.3216 43.146 56.091C45.2776 54.8603 46.0399 51.4595 45.2651 46.6367C44.4903 41.814 42.242 35.9643 39.0148 30.3745C35.7875 24.7848 31.8457 19.9128 28.0564 16.8305C24.2672 13.7481 20.9409 12.7079 18.8093 13.9385V13.9385Z" stroke="#303030" stroke-width="4"/>
<path d="M24 67H38" stroke="#303030" stroke-width="2" stroke-linecap="round"/>
</svg>
